<svg version="1.0" xmlns="http://www.w3.org/2000/svg"
 width="920.000000pt" height="640.000000pt" viewBox="0 0 920.000000 640.000000"
 preserveAspectRatio="xMidYMid meet">

<g transform="translate(0.000000,640.000000) scale(0.100000,-0.100000)"
fill="#000000" stroke="none">
<path d="M4449 5877 c-80 -133 -332 -550 -559 -927 -227 -377 -511 -847 -630
-1045 -119 -198 -269 -447 -334 -554 -64 -106 -116 -195 -114 -196 2 -2 405
179 896 402 l892 406 0 1079 c0 593 -1 1078 -2 1078 -2 0 -69 -109 -149 -243z"/>
<path d="M2984 2548 c267 -376 922 -1299 1414 -1993 101 -143 188 -264 193
-269 5 -6 9 297 9 721 l0 731 -62 37 c-74 44 -314 186 -778 460 -184 109 -471
278 -637 376 -165 99 -303 179 -306 179 -3 0 72 -109 167 -242z"/>
</g>
</svg>
